<svg xmlns="http://www.w3.org/2000/svg" viewBox="0 0 900 260" width="900" height="260">
  <defs>
    <style>
      @import url('https://fonts.googleapis.com/css2?family=JetBrains+Mono:wght@400;700&amp;display=swap');
      .font { font-family: 'JetBrains Mono', monospace; }
      .card { transition: transform 0.3s; }
      .card:hover { transform: scale(1.04); }

      /* Per-card float */
      .c1 { animation: cf1 3.4s ease-in-out infinite; }
      .c2 { animation: cf2 4.0s ease-in-out infinite; }
      .c3 { animation: cf3 3.1s ease-in-out infinite; }
      .c4 { animation: cf4 3.7s ease-in-out infinite; }
      .c5 { animation: cf5 2.8s ease-in-out infinite; }
      @keyframes cf1 { 0%,100%{transform:translateY(0)} 50%{transform:translateY(-8px)} }
      @keyframes cf2 { 0%,100%{transform:translateY(0)} 50%{transform:translateY(-10px)} }
      @keyframes cf3 { 0%,100%{transform:translateY(0)} 50%{transform:translateY(-7px)} }
      @keyframes cf4 { 0%,100%{transform:translateY(0)} 50%{transform:translateY(-9px)} }
      @keyframes cf5 { 0%,100%{transform:translateY(0)} 50%{transform:translateY(-6px)} }

      .glow-az { filter: drop-shadow(0 0 12px #0078D4aa); }
      .glow-aws { filter: drop-shadow(0 0 12px #FF9900aa); }
      .glow-hr  { filter: drop-shadow(0 0 12px #00EA64aa); }
      .glow-co  { filter: drop-shadow(0 0 12px #0056D2aa); }
      .glow-gb  { filter: drop-shadow(0 0 12px #7C3AEDaa); }

      .shine { animation: shinePulse 2s ease-in-out infinite alternate; }
      @keyframes shinePulse {
        from { opacity: 0.05; }
        to   { opacity: 0.18; }
      }
    </style>
  </defs>

  <!-- Background -->
  <rect width="900" height="260" fill="#0d1117" rx="16"/>

  <!-- Header -->
  <text x="450" y="28" text-anchor="middle" font-family="JetBrains Mono" font-size="15" font-weight="700" fill="#e9d5ff">🏆  CERTIFICATIONS  🏆</text>
  <line x1="180" y1="36" x2="720" y2="36" stroke="#7c3aed" stroke-width="1" opacity="0.5"/>

  <!-- ───── CARD 1: Azure AZ-104 ───── -->
  <g class="c1 glow-az">
    <a href="https://learn.microsoft.com/en-us/users/shyambaranwal/credentials/" target="_blank">
      <!-- 3D Depth layers -->
      <rect x="22" y="58" width="148" height="170" rx="12" fill="#001e3c" opacity="0.6"/>
      <rect x="18" y="54" width="148" height="170" rx="12" fill="#00244a" opacity="0.7"/>
      <!-- Main card -->
      <rect x="14" y="50" width="148" height="170" rx="12" fill="#0d2137" stroke="#0078D4" stroke-width="2"/>
      <!-- Shine overlay -->
      <rect x="14" y="50" width="148" height="80" rx="12" fill="white" class="shine"/>
      <!-- Top accent bar -->
      <rect x="14" y="50" width="148" height="6" rx="3" fill="#0078D4"/>
      <!-- Icon area -->
      <rect x="64" y="70" width="48" height="48" rx="8" fill="#0078D4" opacity="0.2"/>
      <text x="88" y="103" text-anchor="middle" font-size="28">☁️</text>
      <!-- Content -->
      <text x="88" y="134" text-anchor="middle" font-family="JetBrains Mono" font-size="8" font-weight="700" fill="#60a5fa">MICROSOFT</text>
      <text x="88" y="147" text-anchor="middle" font-family="JetBrains Mono" font-size="9" font-weight="700" fill="#ffffff">Azure Admin</text>
      <text x="88" y="159" text-anchor="middle" font-family="JetBrains Mono" font-size="9" font-weight="700" fill="#ffffff">Associate</text>
      <rect x="34" y="165" width="108" height="1" fill="#0078D4" opacity="0.4"/>
      <text x="88" y="177" text-anchor="middle" font-family="JetBrains Mono" font-size="8" fill="#93c5fd">AZ-104</text>
      <text x="88" y="189" text-anchor="middle" font-family="JetBrains Mono" font-size="8" fill="#64748b">May 2026</text>
      <!-- Click badge -->
      <rect x="44" y="198" width="88" height="14" rx="7" fill="#0078D4" opacity="0.25"/>
      <text x="88" y="208" text-anchor="middle" font-family="JetBrains Mono" font-size="7" fill="#93c5fd">🔗 View Certificate</text>
    </a>
  </g>

  <!-- ───── CARD 2: AWS Academy ───── -->
  <g class="c2 glow-aws">
    <a href="https://www.credly.com/users/shyam-baranwal" target="_blank">
      <rect x="196" y="58" width="148" height="170" rx="12" fill="#2a1500" opacity="0.6"/>
      <rect x="192" y="54" width="148" height="170" rx="12" fill="#331a00" opacity="0.7"/>
      <rect x="188" y="50" width="148" height="170" rx="12" fill="#1a0f00" stroke="#FF9900" stroke-width="2"/>
      <rect x="188" y="50" width="148" height="80" rx="12" fill="white" class="shine"/>
      <rect x="188" y="50" width="148" height="6" rx="3" fill="#FF9900"/>
      <rect x="238" y="70" width="48" height="48" rx="8" fill="#FF9900" opacity="0.2"/>
      <text x="262" y="103" text-anchor="middle" font-size="28">☁️</text>
      <text x="262" y="134" text-anchor="middle" font-family="JetBrains Mono" font-size="8" font-weight="700" fill="#fbbf24">AWS ACADEMY</text>
      <text x="262" y="147" text-anchor="middle" font-family="JetBrains Mono" font-size="9" font-weight="700" fill="#ffffff">Cloud</text>
      <text x="262" y="159" text-anchor="middle" font-family="JetBrains Mono" font-size="9" font-weight="700" fill="#ffffff">Architecting</text>
      <rect x="208" y="165" width="108" height="1" fill="#FF9900" opacity="0.4"/>
      <text x="262" y="177" text-anchor="middle" font-family="JetBrains Mono" font-size="8" fill="#fed7aa">Graduate Badge</text>
      <text x="262" y="189" text-anchor="middle" font-family="JetBrains Mono" font-size="8" fill="#64748b">Jan 2026</text>
      <rect x="218" y="198" width="88" height="14" rx="7" fill="#FF9900" opacity="0.25"/>
      <text x="262" y="208" text-anchor="middle" font-family="JetBrains Mono" font-size="7" fill="#fde68a">🔗 View Certificate</text>
    </a>
  </g>

  <!-- ───── CARD 3: HackerRank ───── -->
  <g class="c3 glow-hr">
    <a href="https://www.hackerrank.com/certificates/iframe/software_engineer_intern" target="_blank">
      <rect x="370" y="58" width="148" height="170" rx="12" fill="#001f0f" opacity="0.6"/>
      <rect x="366" y="54" width="148" height="170" rx="12" fill="#002a14" opacity="0.7"/>
      <rect x="362" y="50" width="148" height="170" rx="12" fill="#00120a" stroke="#00EA64" stroke-width="2"/>
      <rect x="362" y="50" width="148" height="80" rx="12" fill="white" class="shine"/>
      <rect x="362" y="50" width="148" height="6" rx="3" fill="#00EA64"/>
      <rect x="412" y="70" width="48" height="48" rx="8" fill="#00EA64" opacity="0.2"/>
      <text x="436" y="103" text-anchor="middle" font-size="28">⭐</text>
      <text x="436" y="134" text-anchor="middle" font-family="JetBrains Mono" font-size="8" font-weight="700" fill="#4ade80">HACKERRANK</text>
      <text x="436" y="147" text-anchor="middle" font-family="JetBrains Mono" font-size="9" font-weight="700" fill="#ffffff">Software</text>
      <text x="436" y="159" text-anchor="middle" font-family="JetBrains Mono" font-size="9" font-weight="700" fill="#ffffff">Engineer Intern</text>
      <rect x="382" y="165" width="108" height="1" fill="#00EA64" opacity="0.4"/>
      <text x="436" y="177" text-anchor="middle" font-family="JetBrains Mono" font-size="8" fill="#86efac">5★ Java · 3★ Python</text>
      <text x="436" y="189" text-anchor="middle" font-family="JetBrains Mono" font-size="8" fill="#64748b">Mar 2026</text>
      <rect x="392" y="198" width="88" height="14" rx="7" fill="#00EA64" opacity="0.25"/>
      <text x="436" y="208" text-anchor="middle" font-family="JetBrains Mono" font-size="7" fill="#86efac">🔗 View Certificate</text>
    </a>
  </g>

  <!-- ───── CARD 4: Coursera ───── -->
  <g class="c4 glow-co">
    <a href="https://www.coursera.org/account/accomplishments/certificate" target="_blank">
      <rect x="544" y="58" width="148" height="170" rx="12" fill="#000d2e" opacity="0.6"/>
      <rect x="540" y="54" width="148" height="170" rx="12" fill="#001038" opacity="0.7"/>
      <rect x="536" y="50" width="148" height="170" rx="12" fill="#000821" stroke="#0056D2" stroke-width="2"/>
      <rect x="536" y="50" width="148" height="80" rx="12" fill="white" class="shine"/>
      <rect x="536" y="50" width="148" height="6" rx="3" fill="#0056D2"/>
      <rect x="586" y="70" width="48" height="48" rx="8" fill="#0056D2" opacity="0.2"/>
      <text x="610" y="103" text-anchor="middle" font-size="28">🎓</text>
      <text x="610" y="134" text-anchor="middle" font-family="JetBrains Mono" font-size="8" font-weight="700" fill="#60a5fa">COURSERA</text>
      <text x="610" y="147" text-anchor="middle" font-family="JetBrains Mono" font-size="9" font-weight="700" fill="#ffffff">Prompt Engg</text>
      <text x="610" y="159" text-anchor="middle" font-family="JetBrains Mono" font-size="9" font-weight="700" fill="#ffffff">for ChatGPT</text>
      <rect x="556" y="165" width="108" height="1" fill="#0056D2" opacity="0.4"/>
      <text x="610" y="177" text-anchor="middle" font-family="JetBrains Mono" font-size="8" fill="#93c5fd">Vanderbilt Univ.</text>
      <text x="610" y="189" text-anchor="middle" font-family="JetBrains Mono" font-size="8" fill="#64748b">Oct 2024</text>
      <rect x="566" y="198" width="88" height="14" rx="7" fill="#0056D2" opacity="0.25"/>
      <text x="610" y="208" text-anchor="middle" font-family="JetBrains Mono" font-size="7" fill="#93c5fd">🔗 View Certificate</text>
    </a>
  </g>

  <!-- ───── CARD 5: GokBoru AWS ───── -->
  <g class="c5 glow-gb">
    <a href="https://gokboru.com" target="_blank">
      <rect x="718" y="58" width="148" height="170" rx="12" fill="#1a0a33" opacity="0.6"/>
      <rect x="714" y="54" width="148" height="170" rx="12" fill="#210e3f" opacity="0.7"/>
      <rect x="710" y="50" width="148" height="170" rx="12" fill="#0f0620" stroke="#7C3AED" stroke-width="2"/>
      <rect x="710" y="50" width="148" height="80" rx="12" fill="white" class="shine"/>
      <rect x="710" y="50" width="148" height="6" rx="3" fill="#7C3AED"/>
      <rect x="760" y="70" width="48" height="48" rx="8" fill="#7C3AED" opacity="0.2"/>
      <text x="784" y="103" text-anchor="middle" font-size="28">🚀</text>
      <text x="784" y="134" text-anchor="middle" font-family="JetBrains Mono" font-size="8" font-weight="700" fill="#c084fc">GOKBORU TECH</text>
      <text x="784" y="147" text-anchor="middle" font-family="JetBrains Mono" font-size="9" font-weight="700" fill="#ffffff">6-Week AWS</text>
      <text x="784" y="159" text-anchor="middle" font-family="JetBrains Mono" font-size="9" font-weight="700" fill="#ffffff">Cloud Training</text>
      <rect x="730" y="165" width="108" height="1" fill="#7C3AED" opacity="0.4"/>
      <text x="784" y="177" text-anchor="middle" font-family="JetBrains Mono" font-size="8" fill="#c4b5fd">Cloud Computing</text>
      <text x="784" y="189" text-anchor="middle" font-family="JetBrains Mono" font-size="8" fill="#64748b">Jul 2025</text>
      <rect x="740" y="198" width="88" height="14" rx="7" fill="#7C3AED" opacity="0.25"/>
      <text x="784" y="208" text-anchor="middle" font-family="JetBrains Mono" font-size="7" fill="#c4b5fd">🔗 View Certificate</text>
    </a>
  </g>

  <!-- Border -->
  <rect width="900" height="260" fill="none" rx="16" stroke="#7c3aed" stroke-width="1.5" opacity="0.35"/>
</svg>
